<svg xmlns="http://www.w3.org/2000/svg" viewBox="0 0 240 240">
  {/* Background Circle */}
  <circle cx="120" cy="120" r="120" fill="#F7F8FA"/>
  
  {/* Therapist Chair */}
  <path d="M160 140 h30 v40 h-30 z" fill="#7FA693"/>
  <path d="M160 180 h30 v10 h-30 z" fill="#6A8F7D"/>
  
  {/* Couple's Couch */}
  <path d="M40 140 h90 v10 h-90 z" fill="#A2C1D4"/>
  <path d="M40 150 h90 v40 h-90 z" fill="#7FA693"/>
  <path d="M130 150 v40 h15 l-5-40 z" fill="#6A8F7D"/>
  
  {/* Therapist Figure */}
  <circle cx="175" cy="110" r="15" fill="#2D3748"/>
  <path d="M175 125 l-10 25 h20 z" fill="#2D3748"/>
  
  {/* First Person of Couple */}
  <circle cx="70" cy="110" r="15" fill="#4A5568"/>
  <path d="M70 125 l-10 25 h20 z" fill="#4A5568"/>
  
  {/* Second Person of Couple */}
  <circle cx="100" cy="110" r="15" fill="#4A5568"/>
  <path d="M100 125 l-10 25 h20 z" fill="#4A5568"/>
  
  {/* Heart Symbol Between Couple */}
  <path d="M85 115 
           c-2-3-6-3-8 0
           c-2 3-2 6 0 8
           l8 8
           l8-8
           c2-2 2-5 0-8
           c-2-3-6-3-8 0z" 
        fill="#FF7F50" 
        opacity="0.8"/>
  
  {/* Plant Decoration */}
  <path d="M30 80 c0 0 -5 -10 0 -20 c5 -10 15 -10 20 0 c5 10 0 20 0 20 z" fill="#7FA693"/>
  <rect x="37" y="80" width="6" height="20" fill="#6A8F7D"/>
  
  {/* Small Window */}
  <rect x="200" y="60" width="20" height="40" fill="#A2C1D4" opacity="0.5"/>
  <path d="M200 80 h20" stroke="#FFFFFF" strokeWidth="2"/>
  
  {/* Connection Lines - Representing therapeutic relationship */}
  <path d="M120 105 l35 0" stroke="#FF7F50" strokeWidth="2" strokeDasharray="4" opacity="0.6"/>
</svg>