<svg width="420" height="420" viewBox="0 0 420 420" fill="none" xmlns="http://www.w3.org/2000/svg">
<path d="M331.638 51.0493L60.3048 89.1827C57.5702 89.567 55.665 92.0954 56.0493 94.8299L65.9321 165.15L65.9347 165.169C66.1269 166.536 67.3911 167.489 68.7584 167.297C69.7829 167.153 70.5746 166.407 70.8263 165.467L70.8704 165.271L70.8708 165.268C73.1852 155.037 77.6371 145.31 84.0505 136.77C95.9742 120.894 113.701 110.425 133.331 107.667C152.961 104.908 172.887 110.085 188.725 122.059L200.996 131.337C203.204 133.006 206.347 132.564 208.009 130.351L217.248 118.051C223.15 110.188 230.54 103.57 238.996 98.5748C247.452 93.5799 256.807 90.3058 266.527 88.9397C276.248 87.5736 286.143 88.1421 295.648 90.6129C305.153 93.0837 314.081 97.4083 321.922 103.34C329.766 109.267 336.37 116.686 341.357 125.172C341.735 125.816 342.104 126.465 342.462 127.118C342.931 128.048 343.954 128.621 345.043 128.468C346.068 128.324 346.859 127.578 347.111 126.638L347.155 126.442C347.202 126.185 347.209 125.917 347.171 125.644C347.053 124.807 346.534 124.125 345.835 123.766C346.531 124.124 347.05 124.802 347.17 125.635L337.285 55.3048C336.901 52.5702 334.373 50.665 331.638 51.0493Z" fill="#F5BE09"/>
<path d="M75.176 210.244C73.2861 208.355 70.0547 209.693 70.0547 212.366V349.305C70.0547 352.066 72.2933 354.305 75.0547 354.305H349.055C351.816 354.305 354.055 352.066 354.055 349.305V212.002C354.055 209.33 350.823 207.991 348.933 209.881L215.409 343.406C213.456 345.359 210.29 345.359 208.337 343.406L75.176 210.244Z" fill="#F5BE09"/>
</svg>
